<svg width="36" height="36" viewBox="0 0 36 36" fill="none" xmlns="http://www.w3.org/2000/svg">
<rect width="36" height="36" rx="6" fill="#0F172A"/>
<path d="M6.44 19.9275V18.15H9.2075V19.8825C9.2075 20.6775 9.41 21.2475 9.815 21.5925C10.235 21.9375 10.8125 22.11 11.5475 22.11C12.0275 22.11 12.4325 22.065 12.7625 21.975C13.0925 21.885 13.34 21.7875 13.505 21.6825V18.15H16.2725V21.9075C16.2725 22.2525 16.2125 22.545 16.0925 22.785C15.9875 23.01 15.7775 23.22 15.4625 23.415C15.0275 23.67 14.4725 23.88 13.7975 24.045C13.1375 24.225 12.38 24.315 11.525 24.315C10.49 24.315 9.59 24.165 8.825 23.865C8.06 23.565 7.4675 23.0925 7.0475 22.4475C6.6425 21.7875 6.44 20.9475 6.44 19.9275ZM16.2725 19.23H13.505V13.38C13.625 13.35 13.7975 13.32 14.0225 13.29C14.2625 13.245 14.51 13.2225 14.765 13.2225C15.29 13.2225 15.6725 13.3125 15.9125 13.4925C16.1525 13.6725 16.2725 14.01 16.2725 14.505V19.23ZM9.2075 19.23H6.44V13.38C6.56 13.35 6.7325 13.32 6.9575 13.29C7.1825 13.245 7.43 13.2225 7.7 13.2225C8.225 13.2225 8.6075 13.3125 8.8475 13.4925C9.0875 13.6725 9.2075 14.01 9.2075 14.505V19.23ZM24.1797 24.315C23.5797 24.315 23.0322 24.2325 22.5372 24.0675C22.0572 23.9175 21.6597 23.745 21.3447 23.55V21.165C21.6297 21.405 21.9672 21.6225 22.3572 21.8175C22.7622 21.9975 23.2347 22.0875 23.7747 22.0875C24.6747 22.0875 25.3872 21.81 25.9122 21.255C26.4372 20.685 26.6997 19.8075 26.6997 18.6225C26.6997 17.7975 26.5722 17.145 26.3172 16.665C26.0772 16.17 25.7397 15.81 25.3047 15.585C24.8697 15.36 24.3822 15.2475 23.8422 15.2475C23.4222 15.2475 23.0547 15.3 22.7397 15.405C22.4247 15.495 22.1547 15.6075 21.9297 15.7425V22.8525H19.1622V15.4725C19.1622 15.1275 19.2297 14.8425 19.3647 14.6175C19.4997 14.3925 19.7247 14.1825 20.0397 13.9875C20.4747 13.7325 21.0147 13.515 21.6597 13.335C22.3047 13.14 23.0322 13.0425 23.8422 13.0425C24.9372 13.0425 25.9122 13.2375 26.7672 13.6275C27.6222 14.0025 28.2897 14.6025 28.7697 15.4275C29.2647 16.2525 29.5122 17.3175 29.5122 18.6225C29.5122 19.8825 29.2797 20.9325 28.8147 21.7725C28.3647 22.6125 27.7347 23.25 26.9247 23.685C26.1297 24.105 25.2147 24.315 24.1797 24.315ZM21.9297 22.0875V28.0275C21.8097 28.0725 21.6372 28.11 21.4122 28.14C21.1872 28.185 20.9397 28.2075 20.6697 28.2075C20.1597 28.2075 19.7772 28.11 19.5222 27.915C19.2822 27.72 19.1622 27.3825 19.1622 26.9025V22.065L21.9297 22.0875Z" fill="white"/>
</svg>
