<svg width="96" height="31" viewBox="0 0 96 31" fill="none" xmlns="http://www.w3.org/2000/svg">
<path fill-rule="evenodd" clip-rule="evenodd" d="M58.9736 24.9411C53.5905 28.6957 45.7628 30.7006 39.0321 30.7006C29.595 30.7006 21.0981 27.4044 14.6709 21.9202C14.166 21.4889 14.618 20.9015 15.224 21.2364C22.1608 25.0498 30.7375 27.3422 39.5963 27.3422C45.5716 27.3422 52.1445 26.1745 58.1884 23.7515C59.1016 23.385 59.8646 24.316 58.9717 24.942M61.2159 22.5189C60.5291 21.6861 56.6681 22.1262 54.9214 22.3208C54.3924 22.3822 54.3116 21.9465 54.7878 21.6335C57.8691 19.584 62.9273 20.1757 63.5185 20.8621C64.1098 21.5485 63.3654 26.3411 60.4688 28.6273C60.0233 28.978 59.6 28.7913 59.7977 28.3258C60.4474 26.7917 61.9064 23.3544 61.2159 22.5189Z" fill="#FF9900"/>
<path fill-rule="evenodd" clip-rule="evenodd" d="M55.0542 7.16526V5.17354C55.0522 5.10686 55.0647 5.0405 55.0909 4.97852C55.117 4.91655 55.1562 4.86026 55.2062 4.81308C55.2561 4.76591 55.3157 4.72885 55.3813 4.70416C55.447 4.67946 55.5172 4.66767 55.5878 4.66948H65.0286C65.3312 4.66948 65.5744 4.87549 65.5744 5.17354V6.8786C65.5706 7.16438 65.3145 7.5387 64.8634 8.13043L59.9722 14.728C61.7913 14.6859 63.7088 14.9419 65.3572 15.8194C65.7284 16.0175 65.8212 16.3077 65.8584 16.5943V18.7202C65.8584 19.0095 65.5187 19.3496 65.1623 19.1743C62.2573 17.7366 58.3991 17.5788 55.1878 19.1892C54.8602 19.3575 54.5168 19.0209 54.5168 18.7316V16.7127C54.5168 16.3883 54.5205 15.8361 54.8639 15.3425L60.5319 7.66494H55.6082C55.3057 7.66494 55.0625 7.46331 55.0625 7.16526M20.6127 19.5942H17.7411C17.4664 19.5749 17.2492 19.3803 17.2278 19.1322V5.20773C17.2278 4.92896 17.4747 4.70805 17.781 4.70805H20.4595C20.738 4.71945 20.9607 4.92195 20.9811 5.17266V6.99256H21.0341C21.7329 5.23315 23.0462 4.41262 24.8152 4.41262C26.613 4.41262 27.736 5.23315 28.5444 6.99256C29.2405 5.23315 30.8183 4.41262 32.5121 4.41262C33.7158 4.41262 35.0328 4.88162 35.8366 5.93534C36.7461 7.10652 36.5605 8.80895 36.5605 10.301L36.554 19.0901C36.554 19.3689 36.3071 19.5942 36.0009 19.5942H33.1237C32.8453 19.5749 32.6067 19.3575 32.6067 19.0901V11.7001C32.6067 11.1127 32.6624 9.64701 32.526 9.09035C32.3125 8.15585 31.6693 7.89199 30.8368 7.89199C30.1407 7.89199 29.4149 8.3303 29.1198 9.03337C28.8247 9.73643 28.8534 10.9111 28.8534 11.701V19.0822C28.8534 19.361 28.6066 19.5863 28.3003 19.5863H25.4231C25.1326 19.567 24.9062 19.3496 24.9062 19.0822L24.9024 11.701C24.9024 10.1476 25.1735 7.8613 23.1325 7.8613C21.0684 7.8613 21.1491 10.0897 21.1491 11.701V19.0822C21.1491 19.361 20.9023 19.5863 20.596 19.5863M73.7028 4.42402C77.9647 4.42402 80.272 7.88147 80.272 12.2769C80.272 16.5242 77.7225 19.8931 73.7028 19.8931C69.5263 19.8931 67.2385 16.4357 67.2385 12.1279C67.2385 7.79293 69.5458 4.4135 73.7028 4.4135M73.7269 7.25643C71.6108 7.25643 71.4762 9.98101 71.4762 11.679C71.4762 13.3771 71.4484 17.0134 73.7019 17.0134C75.9275 17.0134 76.0333 14.0828 76.0333 12.2971C76.0333 11.1224 75.9804 9.71714 75.6064 8.60294C75.2834 7.63338 74.6411 7.25555 73.7279 7.25555M85.7999 19.5942H82.9394C82.661 19.5749 82.4224 19.3575 82.4224 19.0901L82.4187 5.16215C82.4429 4.90617 82.6814 4.70805 82.9719 4.70805H85.6356C85.8862 4.71945 86.0922 4.87987 86.1488 5.09728V7.2275H86.2017C87.0055 5.32345 88.1322 4.41525 90.1165 4.41525C91.4159 4.41525 92.6614 4.85357 93.4698 6.05631C94.2123 7.16964 94.2123 9.04389 94.2123 10.3913V19.1576C94.1798 19.4031 93.9413 19.5959 93.6591 19.5959H90.7839C90.5212 19.5767 90.3031 19.3943 90.2752 19.1576V11.5949C90.2752 10.0722 90.4609 7.8429 88.4775 7.8429C87.7786 7.8429 87.1363 8.2856 86.8069 8.95622C86.4031 9.80656 86.3502 10.6543 86.3502 11.5931V19.0919C86.3465 19.3706 86.0959 19.5959 85.7887 19.5959M47.5271 12.9335C47.5271 13.9907 47.555 14.8621 46.9888 15.8106C46.5322 16.5733 45.8055 17.0432 45.0008 17.0432C43.8982 17.0432 43.2513 16.2498 43.2513 15.0778C43.2513 12.7652 45.4454 12.3453 47.5253 12.3453V12.9326M50.421 19.546C50.2307 19.7064 49.9569 19.7178 49.7435 19.6108C48.7903 18.8631 48.6167 18.515 48.0951 17.8023C46.5192 19.3207 45.4008 19.7748 43.3599 19.7748C40.9403 19.7748 39.0609 18.3669 39.0609 15.5468C39.0609 13.3447 40.3212 11.8456 42.1236 11.1127C43.6829 10.464 45.8602 10.3501 47.5253 10.1704V9.81971C47.5253 9.1745 47.5782 8.41183 47.1726 7.85429C46.8255 7.35461 46.1544 7.1486 45.5605 7.1486C44.4653 7.1486 43.4908 7.67896 43.2532 8.77914C43.2049 9.0246 43.0146 9.26392 42.752 9.27532L39.9676 8.99304C39.7337 8.94307 39.4711 8.76511 39.5407 8.42323C40.1792 5.23228 43.2346 4.27148 45.9633 4.27148C47.361 4.27148 49.1875 4.62214 50.2901 5.6215C51.6879 6.85405 51.5542 8.49862 51.5542 10.2887V14.5167C51.5542 15.7878 52.1111 16.3445 52.6373 17.0327C52.8192 17.2781 52.8601 17.5709 52.6253 17.7541L50.4294 19.5635L50.4256 19.5547M9.87067 12.9423C9.87067 13.9995 9.89851 14.8709 9.33236 15.8194C8.87573 16.5821 8.15366 17.0519 7.34434 17.0519C6.24174 17.0519 5.59948 16.2586 5.59948 15.0865C5.59948 12.774 7.79355 12.3541 9.86881 12.3541V12.9414M12.7645 19.5547C12.5743 19.7152 12.3005 19.7266 12.087 19.6196C11.1338 18.8718 10.9733 18.5238 10.4387 17.8111C8.86274 19.3294 7.74714 19.7835 5.70343 19.7835C3.28847 19.7844 1.40625 18.3765 1.40625 15.5573C1.40625 13.3552 2.67034 11.8561 4.46903 11.1233C6.02827 10.4746 8.20563 10.3606 9.87067 10.1809V9.83023C9.87067 9.18502 9.92357 8.42235 9.52355 7.86481C9.17087 7.36513 8.50263 7.15912 7.91142 7.15912C6.81624 7.15912 5.83893 7.68948 5.59113 8.78966C5.54286 9.03512 5.3526 9.27444 5.09458 9.28584L2.30652 9.00356C2.07264 8.95359 1.81462 8.77564 1.87959 8.43375C2.52185 5.2428 5.57349 4.282 8.30215 4.282C9.6999 4.282 11.5264 4.63266 12.629 5.63202C14.0268 6.86457 13.8931 8.50914 13.8931 10.2992V14.5272C13.8931 15.7984 14.45 16.355 14.9762 17.0432C15.1619 17.2886 15.2027 17.5814 14.967 17.7646L12.7766 19.5635L12.7673 19.5547" fill="#221F1F"/>
</svg>
