<svg width="96" height="31" viewBox="0 0 96 31" fill="none" xmlns="http://www.w3.org/2000/svg">
<path d="M12.5602 2.84961H13.3746C16.202 2.90162 18.9832 3.86387 20.9807 5.56731C20.2432 6.20448 19.4903 6.81563 18.7681 7.4528C17.6464 6.59458 16.2942 5.93141 14.819 5.69735C12.6371 5.30724 10.2861 5.65834 8.45756 6.71161C6.46 7.81689 5.1078 9.68938 4.81585 11.6919C4.49317 13.6684 5.1539 15.7489 6.67512 17.2833C8.13488 18.7787 10.3629 19.715 12.6678 19.78C14.819 19.884 17.0625 19.3249 18.6298 18.0505C19.859 17.1533 20.4276 15.788 20.612 14.4616C18.0612 14.4616 15.5105 14.4746 12.9598 14.4616V11.7829H23.7005C24.2537 14.6567 23.4547 17.8945 20.8732 19.949C19.1522 21.4054 16.7705 22.2636 14.3427 22.4327C11.9917 22.6277 9.5639 22.2506 7.47414 21.2884C4.96951 20.1571 2.97194 18.2456 1.98853 15.996C1.06657 13.9285 1.05121 11.5879 1.9117 9.50733C2.69536 7.60884 4.20121 5.93141 6.13731 4.7611C7.99658 3.6038 10.2554 2.96664 12.5602 2.84961Z" fill="#3780FF"/>
<path d="M74.1719 3.52344H77.4602V22.0922C76.3692 22.0922 75.2629 22.1052 74.1719 22.0792C74.1872 15.9026 74.1719 9.71304 74.1719 3.52344Z" fill="#38B137"/>
<path d="M31.0104 9.96105C33.0386 9.63597 35.236 10.0001 36.9108 11.0273C38.4321 11.9376 39.4923 13.3679 39.815 14.9283C40.2299 16.7358 39.7074 18.7123 38.3245 20.1427C36.834 21.7421 34.3908 22.6003 32.0091 22.4703C29.8272 22.3663 27.7067 21.443 26.416 19.9346C24.9562 18.2702 24.6028 15.9816 25.4018 14.0311C26.2008 11.9376 28.4596 10.3382 31.0104 9.96105ZM31.4713 12.4317C30.6416 12.6137 29.8733 13.0168 29.3201 13.589C27.8296 15.0974 27.9218 17.555 29.566 18.9594C30.5033 19.7656 31.9169 20.1427 33.223 19.9216C34.4369 19.7396 35.4972 19.0504 36.0811 18.1402C37.0952 16.5928 36.8033 14.4602 35.2513 13.2509C34.2526 12.4707 32.7928 12.1456 31.4713 12.4317Z" fill="#FA3913"/>
<path d="M47.2946 9.96201C49.6148 9.58491 52.1502 10.1311 53.8865 11.5094C56.7139 13.655 57.0212 17.673 54.6087 20.1436C53.149 21.704 50.7826 22.5623 48.447 22.4712C46.219 22.4192 44.0217 21.483 42.7002 19.9356C41.2097 18.2321 40.887 15.8915 41.7321 13.902C42.5773 11.8735 44.7899 10.3261 47.2946 9.96201ZM47.7556 12.4326C46.9258 12.6147 46.1575 13.0178 45.6043 13.5769C44.1292 15.0593 44.1907 17.4779 45.7734 18.8953C46.7107 19.7405 48.1704 20.1566 49.5226 19.9226C50.7212 19.7275 51.7968 19.0514 52.3807 18.1411C53.3795 16.5807 53.0875 14.4482 51.5202 13.2389C50.5214 12.4587 49.0617 12.1466 47.7556 12.4326Z" fill="#FCBD06"/>
<path d="M61.1094 10.7166C62.8765 9.78037 65.2274 9.5203 67.1328 10.3265C67.7321 10.5476 68.2238 10.9247 68.7001 11.3018C68.7155 10.9507 68.7001 10.5866 68.7155 10.2225C69.745 10.2355 70.7745 10.2225 71.8194 10.2355V21.7044C71.804 23.4339 71.2816 25.2674 69.8065 26.5287C68.1931 27.92 65.7191 28.3492 63.4911 28.0631C61.1094 27.764 59.035 26.2946 58.113 24.4352C59.035 24.0581 60.003 23.759 60.9557 23.4079C61.4935 24.4742 62.5845 25.3844 63.9521 25.5924C65.3196 25.8005 66.9023 25.5144 67.7935 24.5522C68.7462 23.5639 68.7462 22.2116 68.7001 21.0023C67.9933 21.5874 67.1789 22.1076 66.1955 22.3026C64.0596 22.8097 61.7087 22.1856 60.0645 20.9633C58.405 19.7409 57.4216 17.8555 57.5138 15.983C57.5599 13.8634 58.9735 11.8219 61.1094 10.7166ZM64.2901 12.381C63.3528 12.5111 62.4769 12.9532 61.8777 13.5643C60.4333 15.0207 60.4333 17.3483 61.893 18.7787C62.7228 19.6239 64.0596 20.092 65.3504 19.975C66.5643 19.871 67.686 19.2208 68.2853 18.3236C69.2994 16.8022 69.1304 14.7346 67.7628 13.4083C66.9177 12.5891 65.5655 12.186 64.2901 12.381Z" fill="#3780FF"/>
<path d="M81.4079 11.3781C83.2518 9.92176 86.0945 9.42763 88.4608 10.1948C90.7043 10.91 92.1333 12.7175 92.8555 14.577C89.5211 15.7473 86.2021 16.9046 82.8677 18.0749C83.3286 18.8161 84.0355 19.4922 84.9882 19.7653C86.325 20.1684 87.923 20.0254 89.0447 19.2712C89.4904 18.9851 89.8438 18.608 90.1818 18.2439C91.0269 18.725 91.8721 19.1931 92.7172 19.6743C91.5186 21.1957 89.5057 22.2619 87.3391 22.431C84.9421 22.6781 82.3913 21.8978 80.8394 20.3114C78.2886 17.8148 78.5345 13.6277 81.4079 11.3781ZM83.0521 13.7838C82.5296 14.4209 82.3145 15.2011 82.3299 15.9683C84.5579 15.1881 86.786 14.4079 89.014 13.6147C88.6452 12.8865 87.754 12.4444 86.8474 12.3274C85.3877 12.1063 83.8664 12.7695 83.0521 13.7838Z" fill="#FA3913"/>
</svg>
