<svg width="96" height="39" viewBox="0 0 96 39" fill="none" xmlns="http://www.w3.org/2000/svg">
<g clip-path="url(#clip0_1278_44162)">
<path d="M96.0057 18.2238V16.5354H93.9091V13.9108L93.8386 13.9325L91.8693 14.535L91.8305 14.5468V16.5355H88.7224V15.4276C88.7224 14.9118 88.8377 14.517 89.0651 14.2537C89.2908 13.9936 89.6137 13.8614 90.0256 13.8614C90.3216 13.8614 90.6282 13.9311 90.9367 14.0686L91.014 14.1032V12.3252L90.9776 12.3118C90.6898 12.2083 90.2984 12.1562 89.8132 12.1562C89.2017 12.1562 88.646 12.2893 88.1615 12.5531C87.6766 12.8172 87.2952 13.1942 87.028 13.6736C86.7618 14.1524 86.6267 14.7054 86.6267 15.3174V16.5354H85.1668V18.2238H86.6267V25.3363H88.7224V18.2238H91.8305V22.7436C91.8305 24.6051 92.7086 25.5485 94.4402 25.5485C94.7248 25.5485 95.0243 25.5151 95.3301 25.4499C95.6414 25.3828 95.8534 25.3158 95.9782 25.2443L96.0058 25.228V23.5241L95.9205 23.5805C95.8068 23.6562 95.6651 23.7182 95.4991 23.7642C95.3323 23.8111 95.193 23.8346 95.0851 23.8346C94.6795 23.8346 94.3793 23.7253 94.1931 23.5096C94.0048 23.2919 93.9092 22.9113 93.9092 22.3788V18.2238H96.0057ZM80.4867 23.8349C79.7261 23.8349 79.1263 23.5827 78.7037 23.0859C78.2785 22.5865 78.063 21.8746 78.063 20.9701C78.063 20.0369 78.2785 19.3065 78.7039 18.7983C79.1268 18.2935 79.7208 18.0373 80.4696 18.0373C81.1963 18.0373 81.7748 18.282 82.1892 18.765C82.6056 19.2505 82.8169 19.975 82.8169 20.9191C82.8169 21.8748 82.6182 22.6089 82.2263 23.1C81.8371 23.5873 81.2519 23.8349 80.4867 23.8349ZM80.5799 16.3234C79.1287 16.3234 77.976 16.7487 77.1541 17.5873C76.3328 18.4261 75.9164 19.5868 75.9164 21.0376C75.9164 22.4155 76.3229 23.5239 77.1247 24.3314C77.9265 25.1391 79.0177 25.5483 80.3677 25.5483C81.7744 25.5483 82.9041 25.1171 83.7256 24.2668C84.547 23.4175 84.9632 22.2677 84.9632 20.8508C84.9632 19.4513 84.5727 18.3347 83.8021 17.5326C83.0313 16.7302 81.947 16.3234 80.5799 16.3234ZM72.5375 16.3234C71.5503 16.3234 70.7337 16.5759 70.11 17.0738C69.4824 17.5746 69.164 18.2315 69.164 19.0263C69.164 19.4395 69.2327 19.8065 69.368 20.1178C69.504 20.4301 69.7145 20.705 69.9943 20.9358C70.2718 21.1647 70.7003 21.4045 71.2681 21.6485C71.7454 21.8449 72.1014 22.011 72.3275 22.142C72.5485 22.2703 72.7054 22.3993 72.794 22.5249C72.8801 22.6479 72.9237 22.8162 72.9237 23.0238C72.9237 23.6151 72.4809 23.9028 71.5698 23.9028C71.2319 23.9028 70.8464 23.8322 70.4241 23.6931C70.0049 23.5561 69.6092 23.3554 69.2509 23.0982L69.1638 23.0358V25.0535L69.1958 25.0684C69.4923 25.2052 69.8662 25.3207 70.3068 25.4115C70.7467 25.5024 71.1463 25.5487 71.4934 25.5487C72.5646 25.5487 73.4272 25.295 74.0567 24.7941C74.6901 24.2899 75.0112 23.6175 75.0112 22.7952C75.0112 22.202 74.8383 21.6932 74.4977 21.2829C74.1594 20.876 73.5722 20.5024 72.7532 20.1722C72.1007 19.9103 71.6827 19.6929 71.5103 19.526C71.3441 19.3648 71.2596 19.1368 71.2596 18.8481C71.2596 18.5922 71.3638 18.3871 71.5777 18.2211C71.7933 18.0542 72.0933 17.9693 72.4696 17.9693C72.8188 17.9693 73.176 18.0245 73.5313 18.1326C73.8864 18.2407 74.1982 18.3854 74.4585 18.5625L74.5441 18.621V16.7071L74.5113 16.6929C74.2711 16.59 73.9544 16.5018 73.5698 16.4303C73.1869 16.3593 72.8396 16.3234 72.5375 16.3234ZM63.7006 23.8349C62.9401 23.8349 62.3402 23.5827 61.9177 23.0859C61.4924 22.5865 61.2773 21.8748 61.2773 20.9701C61.2773 20.0369 61.4926 19.3065 61.9181 18.7983C62.3407 18.2935 62.9346 18.0373 63.6838 18.0373C64.4102 18.0373 64.9887 18.282 65.4031 18.765C65.8196 19.2505 66.0309 19.975 66.0309 20.9191C66.0309 21.8748 65.8321 22.6089 65.4402 23.1C65.051 23.5873 64.466 23.8349 63.7006 23.8349ZM63.794 16.3234C62.3425 16.3234 61.1897 16.7487 60.3683 17.5873C59.547 18.4261 59.1303 19.5868 59.1303 21.0376C59.1303 22.4161 59.5371 23.5239 60.3389 24.3314C61.1407 25.1391 62.2318 25.5483 63.5818 25.5483C64.9883 25.5483 66.1183 25.1171 66.9398 24.2668C67.761 23.4175 68.1773 22.2677 68.1773 20.8508C68.1773 19.4513 67.7867 18.3347 67.016 17.5326C66.245 16.7302 65.1609 16.3234 63.794 16.3234ZM55.9491 18.0596V16.5354H53.8789V25.3361H55.9491V20.8342C55.9491 20.0687 56.1227 19.4398 56.4651 18.9648C56.8033 18.4955 57.2539 18.2576 57.804 18.2576C57.9905 18.2576 58.1998 18.2884 58.4265 18.3492C58.6508 18.4097 58.8134 18.4753 58.9092 18.5444L58.9962 18.6075V16.5204L58.9627 16.506C58.7699 16.4241 58.4971 16.3828 58.1521 16.3828C57.6318 16.3828 57.1663 16.5499 56.7675 16.8791C56.4175 17.1683 56.1645 17.565 55.9711 18.0596H55.9491ZM50.1716 16.3234C49.2219 16.3234 48.3747 16.5271 47.6542 16.9285C46.9322 17.3309 46.3738 17.9054 45.9938 18.6359C45.6156 19.3646 45.4235 20.2158 45.4235 21.1651C45.4235 21.9966 45.6097 22.7597 45.9778 23.4322C46.346 24.1059 46.8671 24.6329 47.5269 24.9984C48.1857 25.3635 48.9471 25.5486 49.7901 25.5486C50.7739 25.5486 51.6139 25.3519 52.2874 24.964L52.3146 24.9484V23.0518L52.2276 23.1153C51.9225 23.3375 51.5816 23.5149 51.2148 23.6427C50.8489 23.7704 50.5153 23.8349 50.2228 23.8349C49.4105 23.8349 48.7584 23.5807 48.285 23.0796C47.8107 22.5779 47.5701 21.8733 47.5701 20.9867C47.5701 20.0945 47.821 19.3719 48.3153 18.8386C48.8081 18.307 49.4615 18.0373 50.2569 18.0373C50.9374 18.0373 51.6004 18.2677 52.2278 18.7227L52.3146 18.7858V16.7874L52.2865 16.7716C52.0505 16.6395 51.7285 16.5303 51.3288 16.4476C50.9308 16.365 50.5415 16.3234 50.1716 16.3234ZM43.9978 16.5355H41.9276V25.3361H43.9978V16.5355ZM42.9839 12.7864C42.6431 12.7864 42.346 12.9024 42.1018 13.1323C41.8567 13.3628 41.7323 13.653 41.7323 13.9955C41.7323 14.3326 41.8552 14.6175 42.098 14.8418C42.3393 15.0656 42.6374 15.179 42.984 15.179C43.3304 15.179 43.6297 15.0656 43.8738 14.8422C44.1195 14.6175 44.2441 14.3327 44.2441 13.9955C44.2441 13.665 44.1229 13.3777 43.8839 13.1416C43.6452 12.9059 43.3422 12.7864 42.9839 12.7864ZM37.8186 15.8862V25.3361H39.9313V13.0558H37.0073L33.2906 22.1772L29.6838 13.0558H26.6406V25.336H28.626V15.8853H28.6942L32.5029 25.3361H34.0012L37.7505 15.8862H37.8186Z" fill="#706D6E"/>
<path d="M9.73869 18.6899H0V8.95117H9.73869V18.6899Z" fill="#F1511B"/>
<path d="M20.4885 18.6899H10.75V8.95117H20.4885V18.6899Z" fill="#80CC28"/>
<path d="M9.73841 29.4476H0V19.709H9.73841V29.4476Z" fill="#00ADEF"/>
<path d="M20.4885 29.4476H10.75V19.709H20.4885V29.4476Z" fill="#FBBC09"/>
</g>
<defs>
<clipPath id="clip0_1278_44162">
<rect width="96" height="38.4" fill="white"/>
</clipPath>
</defs>
</svg>
